<mxfile host="app.diagrams.net" modified="2023-07-20T08:07:12.471Z" agent="Mozilla/5.0 (Macintosh; Intel Mac OS X 10_15_7) AppleWebKit/537.36 (KHTML, like Gecko) Chrome/114.0.0.0 Safari/537.36" etag="22br-ldE6ZpHObHTKHp7" version="21.6.3" type="device">
  <diagram name="Page-1" id="QGtCVKumcEi17zyCFpHR">
    <mxGraphModel dx="1394" dy="325" grid="1" gridSize="10" guides="1" tooltips="1" connect="1" arrows="1" fold="1" page="1" pageScale="1" pageWidth="850" pageHeight="1100" math="0" shadow="0">
      <root>
        <mxCell id="0" />
        <mxCell id="1" parent="0" />
        <mxCell id="avbdHqin9oMnhoK1nbsH-1" value="" style="rounded=1;whiteSpace=wrap;html=1;fillColor=none;strokeColor=#455964;strokeWidth=3;dashed=1;" parent="1" vertex="1">
          <mxGeometry x="400" y="600" width="800" height="640" as="geometry" />
        </mxCell>
        <mxCell id="avbdHqin9oMnhoK1nbsH-2" style="edgeStyle=orthogonalEdgeStyle;rounded=0;orthogonalLoop=1;jettySize=auto;html=1;exitX=1;exitY=0.5;exitDx=0;exitDy=0;entryX=0;entryY=0.5;entryDx=0;entryDy=0;curved=1;strokeColor=#455964;strokeWidth=3;" parent="1" source="avbdHqin9oMnhoK1nbsH-50" target="avbdHqin9oMnhoK1nbsH-7" edge="1">
          <mxGeometry relative="1" as="geometry">
            <mxPoint x="360" y="940.01" as="sourcePoint" />
          </mxGeometry>
        </mxCell>
        <mxCell id="avbdHqin9oMnhoK1nbsH-3" style="edgeStyle=orthogonalEdgeStyle;rounded=0;orthogonalLoop=1;jettySize=auto;html=1;exitX=1;exitY=0.5;exitDx=0;exitDy=0;entryX=0;entryY=0.5;entryDx=0;entryDy=0;strokeColor=#455964;curved=1;strokeWidth=3;" parent="1" source="avbdHqin9oMnhoK1nbsH-50" target="avbdHqin9oMnhoK1nbsH-27" edge="1">
          <mxGeometry relative="1" as="geometry">
            <mxPoint x="360" y="900.01" as="sourcePoint" />
          </mxGeometry>
        </mxCell>
        <mxCell id="avbdHqin9oMnhoK1nbsH-4" style="edgeStyle=orthogonalEdgeStyle;rounded=0;orthogonalLoop=1;jettySize=auto;html=1;entryX=0.5;entryY=1;entryDx=0;entryDy=0;curved=1;strokeWidth=3;strokeColor=#455964;" parent="1" edge="1" source="avbdHqin9oMnhoK1nbsH-43">
          <mxGeometry relative="1" as="geometry">
            <Array as="points">
              <mxPoint x="-160" y="820" />
              <mxPoint x="-280" y="820" />
              <mxPoint x="-280" y="1020" />
              <mxPoint x="-160" y="1020" />
            </Array>
            <mxPoint x="-160" y="880.0100000000001" as="sourcePoint" />
            <mxPoint x="-160" y="960.0100000000001" as="targetPoint" />
          </mxGeometry>
        </mxCell>
        <mxCell id="avbdHqin9oMnhoK1nbsH-5" value="" style="group" parent="1" connectable="0" vertex="1">
          <mxGeometry x="520" y="1020.01" width="80" height="80" as="geometry" />
        </mxCell>
        <mxCell id="avbdHqin9oMnhoK1nbsH-6" value="" style="ellipse;whiteSpace=wrap;html=1;aspect=fixed;strokeColor=#455964;strokeWidth=3;fillColor=none;" parent="avbdHqin9oMnhoK1nbsH-5" vertex="1">
          <mxGeometry width="80" height="80" as="geometry" />
        </mxCell>
        <mxCell id="avbdHqin9oMnhoK1nbsH-7" value="" style="shape=image;verticalLabelPosition=bottom;labelBackgroundColor=default;verticalAlign=top;aspect=fixed;imageAspect=0;image=https://www.datocms-assets.com/58478/1638283616-packer.svg?auto=format&amp;fit=max&amp;w=1200;" parent="avbdHqin9oMnhoK1nbsH-5" vertex="1">
          <mxGeometry width="80" height="80" as="geometry" />
        </mxCell>
        <mxCell id="avbdHqin9oMnhoK1nbsH-8" style="edgeStyle=orthogonalEdgeStyle;rounded=0;orthogonalLoop=1;jettySize=auto;html=1;exitX=0;exitY=0.75;exitDx=0;exitDy=0;entryX=1;entryY=0.75;entryDx=0;entryDy=0;strokeWidth=3;curved=1;strokeColor=#455964;" parent="avbdHqin9oMnhoK1nbsH-5" source="avbdHqin9oMnhoK1nbsH-7" target="avbdHqin9oMnhoK1nbsH-7" edge="1">
          <mxGeometry relative="1" as="geometry">
            <Array as="points">
              <mxPoint x="-40" y="60" />
              <mxPoint x="-40" y="120" />
              <mxPoint x="120" y="120" />
              <mxPoint x="120" y="60" />
            </Array>
          </mxGeometry>
        </mxCell>
        <mxCell id="avbdHqin9oMnhoK1nbsH-9" value="" style="group" parent="1" connectable="0" vertex="1">
          <mxGeometry x="760" y="1020.01" width="80" height="80" as="geometry" />
        </mxCell>
        <mxCell id="avbdHqin9oMnhoK1nbsH-10" value="" style="ellipse;whiteSpace=wrap;html=1;aspect=fixed;strokeWidth=3;fillColor=none;strokeColor=#455964;" parent="avbdHqin9oMnhoK1nbsH-9" vertex="1">
          <mxGeometry width="80" height="80" as="geometry" />
        </mxCell>
        <mxCell id="avbdHqin9oMnhoK1nbsH-11" value="" style="shape=image;verticalLabelPosition=bottom;labelBackgroundColor=default;verticalAlign=top;aspect=fixed;imageAspect=0;image=https://www.msp360.com/resources/wp-content/uploads/2017/10/Amazon-EBS-Snapshot.png;" parent="avbdHqin9oMnhoK1nbsH-9" vertex="1">
          <mxGeometry x="5" y="5" width="70" height="70" as="geometry" />
        </mxCell>
        <mxCell id="avbdHqin9oMnhoK1nbsH-12" value="" style="group" parent="1" connectable="0" vertex="1">
          <mxGeometry x="1000" y="1020.01" width="80" height="80" as="geometry" />
        </mxCell>
        <mxCell id="avbdHqin9oMnhoK1nbsH-13" value="" style="ellipse;whiteSpace=wrap;html=1;aspect=fixed;strokeColor=#455964;strokeWidth=3;fillColor=none;" parent="avbdHqin9oMnhoK1nbsH-12" vertex="1">
          <mxGeometry width="80" height="80" as="geometry" />
        </mxCell>
        <mxCell id="avbdHqin9oMnhoK1nbsH-14" value="" style="shape=image;verticalLabelPosition=bottom;labelBackgroundColor=default;verticalAlign=top;aspect=fixed;imageAspect=0;image=https://upload.wikimedia.org/wikipedia/commons/thumb/6/6b/AWS_Simple_Icons_Compute_Amazon_EC2_AMI.svg/1200px-AWS_Simple_Icons_Compute_Amazon_EC2_AMI.svg.png;" parent="avbdHqin9oMnhoK1nbsH-12" vertex="1">
          <mxGeometry x="12.5" y="12.5" width="55" height="55" as="geometry" />
        </mxCell>
        <mxCell id="avbdHqin9oMnhoK1nbsH-15" value="" style="group" parent="1" connectable="0" vertex="1">
          <mxGeometry x="1000" y="740.01" width="80" height="80" as="geometry" />
        </mxCell>
        <mxCell id="avbdHqin9oMnhoK1nbsH-16" value="" style="ellipse;whiteSpace=wrap;html=1;aspect=fixed;strokeColor=#455964;strokeWidth=3;fillColor=none;" parent="avbdHqin9oMnhoK1nbsH-15" vertex="1">
          <mxGeometry width="80" height="80" as="geometry" />
        </mxCell>
        <mxCell id="avbdHqin9oMnhoK1nbsH-17" value="" style="shape=image;verticalLabelPosition=bottom;labelBackgroundColor=default;verticalAlign=top;aspect=fixed;imageAspect=0;image=https://upload.wikimedia.org/wikipedia/commons/thumb/b/b9/AWS_Simple_Icons_Compute_Amazon_EC2_Instances.svg/1024px-AWS_Simple_Icons_Compute_Amazon_EC2_Instances.svg.png;" parent="avbdHqin9oMnhoK1nbsH-15" vertex="1">
          <mxGeometry x="9" y="9" width="62" height="62" as="geometry" />
        </mxCell>
        <mxCell id="avbdHqin9oMnhoK1nbsH-18" style="edgeStyle=orthogonalEdgeStyle;rounded=0;orthogonalLoop=1;jettySize=auto;html=1;exitX=1;exitY=0.5;exitDx=0;exitDy=0;entryX=0;entryY=0.5;entryDx=0;entryDy=0;strokeWidth=3;strokeColor=#F79A19;" parent="1" source="avbdHqin9oMnhoK1nbsH-6" target="avbdHqin9oMnhoK1nbsH-10" edge="1">
          <mxGeometry relative="1" as="geometry" />
        </mxCell>
        <mxCell id="avbdHqin9oMnhoK1nbsH-19" style="edgeStyle=orthogonalEdgeStyle;rounded=0;orthogonalLoop=1;jettySize=auto;html=1;exitX=1;exitY=0.5;exitDx=0;exitDy=0;entryX=0;entryY=0.5;entryDx=0;entryDy=0;strokeWidth=3;strokeColor=#F79A19;" parent="1" edge="1">
          <mxGeometry relative="1" as="geometry">
            <mxPoint x="840" y="1059.53" as="sourcePoint" />
            <mxPoint x="1000" y="1059.53" as="targetPoint" />
          </mxGeometry>
        </mxCell>
        <mxCell id="avbdHqin9oMnhoK1nbsH-20" value="&lt;b&gt;&lt;font color=&quot;#f79a19&quot; style=&quot;font-size: 20px;&quot;&gt;Create&lt;/font&gt;&lt;/b&gt;" style="text;html=1;strokeColor=none;fillColor=none;align=center;verticalAlign=middle;whiteSpace=wrap;rounded=0;fontFamily=Ubuntu;" parent="1" vertex="1">
          <mxGeometry x="650" y="1020.01" width="60" height="30" as="geometry" />
        </mxCell>
        <mxCell id="avbdHqin9oMnhoK1nbsH-21" value="&lt;b&gt;&lt;font color=&quot;#f79a19&quot; style=&quot;font-size: 20px;&quot;&gt;Register&lt;/font&gt;&lt;/b&gt;" style="text;html=1;strokeColor=none;fillColor=none;align=center;verticalAlign=middle;whiteSpace=wrap;rounded=0;fontFamily=Ubuntu;" parent="1" vertex="1">
          <mxGeometry x="890" y="1020.01" width="60" height="30" as="geometry" />
        </mxCell>
        <mxCell id="avbdHqin9oMnhoK1nbsH-22" style="edgeStyle=orthogonalEdgeStyle;rounded=0;orthogonalLoop=1;jettySize=auto;html=1;strokeWidth=3;strokeColor=#455964;exitX=0.5;exitY=1;exitDx=0;exitDy=0;" parent="1" source="avbdHqin9oMnhoK1nbsH-13" edge="1">
          <mxGeometry relative="1" as="geometry">
            <mxPoint x="960" y="1230.01" as="sourcePoint" />
            <mxPoint x="1040" y="1180.01" as="targetPoint" />
            <Array as="points">
              <mxPoint x="1040" y="1120.01" />
              <mxPoint x="1040" y="1120.01" />
            </Array>
          </mxGeometry>
        </mxCell>
        <mxCell id="avbdHqin9oMnhoK1nbsH-23" value="&lt;b&gt;&lt;font color=&quot;#f79a19&quot; style=&quot;font-size: 20px;&quot;&gt;Deregister&lt;/font&gt;&lt;/b&gt;" style="text;html=1;strokeColor=none;fillColor=none;align=center;verticalAlign=middle;whiteSpace=wrap;rounded=0;fontFamily=Ubuntu;" parent="1" vertex="1">
          <mxGeometry x="1010" y="1190.01" width="60" height="30" as="geometry" />
        </mxCell>
        <mxCell id="avbdHqin9oMnhoK1nbsH-24" value="&lt;span style=&quot;font-size: 20px;&quot;&gt;&lt;b style=&quot;&quot;&gt;&lt;font color=&quot;#455964&quot;&gt;PR/&lt;/font&gt;&lt;font color=&quot;#f79a19&quot;&gt;master&lt;/font&gt;&lt;font color=&quot;#455964&quot;&gt; commit&lt;/font&gt;&lt;br&gt;&lt;/b&gt;&lt;/span&gt;" style="text;html=1;strokeColor=none;fillColor=none;align=center;verticalAlign=middle;whiteSpace=wrap;rounded=0;fontFamily=Ubuntu;" parent="1" vertex="1">
          <mxGeometry x="-370" y="905.0100000000001" width="60" height="30" as="geometry" />
        </mxCell>
        <mxCell id="avbdHqin9oMnhoK1nbsH-25" value="" style="group" parent="1" connectable="0" vertex="1">
          <mxGeometry x="520" y="740.01" width="80" height="80" as="geometry" />
        </mxCell>
        <mxCell id="avbdHqin9oMnhoK1nbsH-26" value="" style="group" parent="avbdHqin9oMnhoK1nbsH-25" connectable="0" vertex="1">
          <mxGeometry width="80" height="80" as="geometry" />
        </mxCell>
        <mxCell id="avbdHqin9oMnhoK1nbsH-27" value="" style="ellipse;whiteSpace=wrap;html=1;aspect=fixed;strokeColor=#455964;strokeWidth=3;fillColor=none;" parent="avbdHqin9oMnhoK1nbsH-26" vertex="1">
          <mxGeometry width="80" height="80" as="geometry" />
        </mxCell>
        <mxCell id="avbdHqin9oMnhoK1nbsH-28" value="" style="shape=image;verticalLabelPosition=bottom;labelBackgroundColor=default;verticalAlign=top;aspect=fixed;imageAspect=0;image=https://dustindortch.files.wordpress.com/2020/08/terraform-logo.png?w=640;" parent="avbdHqin9oMnhoK1nbsH-26" vertex="1">
          <mxGeometry x="5" y="5" width="75" height="75" as="geometry" />
        </mxCell>
        <mxCell id="avbdHqin9oMnhoK1nbsH-29" style="edgeStyle=orthogonalEdgeStyle;rounded=0;orthogonalLoop=1;jettySize=auto;html=1;exitX=0;exitY=0.25;exitDx=0;exitDy=0;entryX=1;entryY=0.25;entryDx=0;entryDy=0;curved=1;strokeWidth=3;strokeColor=#455964;" parent="avbdHqin9oMnhoK1nbsH-26" source="avbdHqin9oMnhoK1nbsH-28" target="avbdHqin9oMnhoK1nbsH-28" edge="1">
          <mxGeometry relative="1" as="geometry">
            <Array as="points">
              <mxPoint x="-40" y="24" />
              <mxPoint x="-40" y="-40" />
              <mxPoint x="120" y="-40" />
              <mxPoint x="120" y="24" />
            </Array>
          </mxGeometry>
        </mxCell>
        <mxCell id="avbdHqin9oMnhoK1nbsH-30" style="edgeStyle=orthogonalEdgeStyle;rounded=0;orthogonalLoop=1;jettySize=auto;html=1;entryX=0;entryY=0.5;entryDx=0;entryDy=0;strokeColor=#F79A19;strokeWidth=3;exitX=1;exitY=0.5;exitDx=0;exitDy=0;" parent="1" source="avbdHqin9oMnhoK1nbsH-27" target="avbdHqin9oMnhoK1nbsH-16" edge="1">
          <mxGeometry relative="1" as="geometry">
            <mxPoint x="650" y="840.01" as="sourcePoint" />
          </mxGeometry>
        </mxCell>
        <mxCell id="avbdHqin9oMnhoK1nbsH-31" value="&lt;b&gt;&lt;font style=&quot;font-size: 20px;&quot;&gt;&lt;font color=&quot;#f79a19&quot;&gt;Launch&lt;/font&gt;&lt;br&gt;&lt;/font&gt;&lt;/b&gt;" style="text;html=1;strokeColor=none;fillColor=none;align=center;verticalAlign=middle;whiteSpace=wrap;rounded=0;fontFamily=Ubuntu;" parent="1" vertex="1">
          <mxGeometry x="770" y="740.01" width="60" height="30" as="geometry" />
        </mxCell>
        <mxCell id="avbdHqin9oMnhoK1nbsH-32" style="edgeStyle=orthogonalEdgeStyle;rounded=0;orthogonalLoop=1;jettySize=auto;html=1;entryX=0.5;entryY=1;entryDx=0;entryDy=0;curved=1;strokeColor=#F79A19;strokeWidth=3;" parent="1" source="avbdHqin9oMnhoK1nbsH-13" target="avbdHqin9oMnhoK1nbsH-27" edge="1">
          <mxGeometry relative="1" as="geometry">
            <Array as="points">
              <mxPoint x="1040" y="900.01" />
              <mxPoint x="560" y="900.01" />
            </Array>
          </mxGeometry>
        </mxCell>
        <mxCell id="avbdHqin9oMnhoK1nbsH-33" value="&lt;b&gt;&lt;font style=&quot;font-size: 20px;&quot;&gt;&lt;font color=&quot;#f79a19&quot;&gt;Fetch&lt;/font&gt;&lt;br&gt;&lt;/font&gt;&lt;/b&gt;" style="text;html=1;strokeColor=none;fillColor=none;align=center;verticalAlign=middle;whiteSpace=wrap;rounded=0;fontFamily=Ubuntu;" parent="1" vertex="1">
          <mxGeometry x="770" y="860.01" width="60" height="30" as="geometry" />
        </mxCell>
        <mxCell id="avbdHqin9oMnhoK1nbsH-34" value="&lt;b&gt;&lt;font color=&quot;#455964&quot; style=&quot;font-size: 20px;&quot;&gt;Validate&lt;/font&gt;&lt;/b&gt;" style="text;html=1;strokeColor=none;fillColor=none;align=center;verticalAlign=middle;whiteSpace=wrap;rounded=0;fontFamily=Ubuntu;" parent="1" vertex="1">
          <mxGeometry x="530" y="1150.01" width="60" height="30" as="geometry" />
        </mxCell>
        <mxCell id="avbdHqin9oMnhoK1nbsH-35" value="&lt;b&gt;&lt;font color=&quot;#455964&quot; style=&quot;font-size: 20px;&quot;&gt;Validate&lt;/font&gt;&lt;/b&gt;" style="text;html=1;strokeColor=none;fillColor=none;align=center;verticalAlign=middle;whiteSpace=wrap;rounded=0;fontFamily=Ubuntu;" parent="1" vertex="1">
          <mxGeometry x="530" y="660.01" width="60" height="30" as="geometry" />
        </mxCell>
        <mxCell id="avbdHqin9oMnhoK1nbsH-36" value="&lt;b&gt;&lt;font color=&quot;#455964&quot; style=&quot;font-size: 20px;&quot;&gt;HashiCorp AWS&lt;/font&gt;&lt;/b&gt;" style="text;html=1;strokeColor=none;fillColor=none;align=center;verticalAlign=middle;whiteSpace=wrap;rounded=0;fontFamily=Ubuntu;" parent="1" vertex="1">
          <mxGeometry x="675" y="610" width="250" height="30" as="geometry" />
        </mxCell>
        <mxCell id="avbdHqin9oMnhoK1nbsH-37" value="&lt;b&gt;&lt;font style=&quot;font-size: 20px;&quot;&gt;&lt;font color=&quot;#f79a19&quot;&gt;EC2 Instances&lt;/font&gt;&lt;br&gt;&lt;/font&gt;&lt;/b&gt;" style="text;html=1;strokeColor=none;fillColor=none;align=center;verticalAlign=middle;whiteSpace=wrap;rounded=0;fontFamily=Ubuntu;" parent="1" vertex="1">
          <mxGeometry x="1110" y="765.01" width="60" height="30" as="geometry" />
        </mxCell>
        <mxCell id="avbdHqin9oMnhoK1nbsH-38" value="&lt;b&gt;&lt;font style=&quot;font-size: 20px;&quot;&gt;&lt;font color=&quot;#f79a19&quot;&gt;AMI Image&lt;/font&gt;&lt;br&gt;&lt;/font&gt;&lt;/b&gt;" style="text;html=1;strokeColor=none;fillColor=none;align=center;verticalAlign=middle;whiteSpace=wrap;rounded=0;fontFamily=Ubuntu;" parent="1" vertex="1">
          <mxGeometry x="1100" y="1045.01" width="60" height="30" as="geometry" />
        </mxCell>
        <mxCell id="avbdHqin9oMnhoK1nbsH-41" style="edgeStyle=orthogonalEdgeStyle;rounded=0;orthogonalLoop=1;jettySize=auto;html=1;exitX=1;exitY=0.5;exitDx=0;exitDy=0;entryX=0;entryY=0.5;entryDx=0;entryDy=0;strokeColor=#455964;strokeWidth=3;curved=1;" parent="1" source="avbdHqin9oMnhoK1nbsH-43" target="avbdHqin9oMnhoK1nbsH-47" edge="1">
          <mxGeometry relative="1" as="geometry">
            <Array as="points">
              <mxPoint x="-30" y="920" />
              <mxPoint x="-30" y="920" />
            </Array>
          </mxGeometry>
        </mxCell>
        <mxCell id="avbdHqin9oMnhoK1nbsH-42" style="edgeStyle=orthogonalEdgeStyle;rounded=0;orthogonalLoop=1;jettySize=auto;html=1;exitX=1;exitY=0.5;exitDx=0;exitDy=0;entryX=0;entryY=0.5;entryDx=0;entryDy=0;curved=1;strokeColor=#455964;strokeWidth=3;" parent="1" source="avbdHqin9oMnhoK1nbsH-43" target="avbdHqin9oMnhoK1nbsH-45" edge="1">
          <mxGeometry relative="1" as="geometry">
            <Array as="points">
              <mxPoint x="-80" y="920" />
              <mxPoint x="-80" y="680" />
            </Array>
          </mxGeometry>
        </mxCell>
        <mxCell id="iMWLYqXpcg_YgM4Je9na-4" style="edgeStyle=orthogonalEdgeStyle;rounded=0;orthogonalLoop=1;jettySize=auto;html=1;exitX=1;exitY=0.5;exitDx=0;exitDy=0;entryX=0;entryY=0.5;entryDx=0;entryDy=0;strokeColor=#455964;strokeWidth=3;curved=1;" edge="1" parent="1" source="avbdHqin9oMnhoK1nbsH-43" target="avbdHqin9oMnhoK1nbsH-48">
          <mxGeometry relative="1" as="geometry">
            <Array as="points">
              <mxPoint x="-80" y="920" />
              <mxPoint x="-80" y="1160" />
            </Array>
          </mxGeometry>
        </mxCell>
        <mxCell id="avbdHqin9oMnhoK1nbsH-43" value="" style="shape=image;html=1;verticalAlign=top;verticalLabelPosition=bottom;labelBackgroundColor=#ffffff;imageAspect=0;aspect=fixed;image=https://cdn4.iconfinder.com/data/icons/social-media-and-logos-11/32/Logo_Github-128.png" parent="1" vertex="1">
          <mxGeometry x="-200" y="880.0100000000001" width="80" height="80" as="geometry" />
        </mxCell>
        <mxCell id="avbdHqin9oMnhoK1nbsH-44" style="edgeStyle=orthogonalEdgeStyle;rounded=0;orthogonalLoop=1;jettySize=auto;html=1;exitX=1;exitY=0.5;exitDx=0;exitDy=0;entryX=0;entryY=0.5;entryDx=0;entryDy=0;strokeColor=#455964;strokeWidth=3;curved=1;" parent="1" source="avbdHqin9oMnhoK1nbsH-45" target="avbdHqin9oMnhoK1nbsH-50" edge="1">
          <mxGeometry relative="1" as="geometry">
            <Array as="points">
              <mxPoint x="240" y="680" />
              <mxPoint x="240" y="920" />
            </Array>
          </mxGeometry>
        </mxCell>
        <mxCell id="avbdHqin9oMnhoK1nbsH-45" value="&lt;font color=&quot;#ffffff&quot; face=&quot;Ubuntu&quot;&gt;&lt;b&gt;YAML Lint Check&lt;/b&gt;&lt;/font&gt;" style="ellipse;whiteSpace=wrap;html=1;aspect=fixed;strokeColor=none;strokeWidth=3;fillColor=#2184F7;" parent="1" vertex="1">
          <mxGeometry x="40" y="640" width="80" height="80" as="geometry" />
        </mxCell>
        <mxCell id="avbdHqin9oMnhoK1nbsH-46" style="edgeStyle=orthogonalEdgeStyle;rounded=0;orthogonalLoop=1;jettySize=auto;html=1;exitX=1;exitY=0.5;exitDx=0;exitDy=0;strokeWidth=3;curved=1;strokeColor=#455964;" parent="1" source="avbdHqin9oMnhoK1nbsH-47" edge="1">
          <mxGeometry relative="1" as="geometry">
            <mxPoint x="280" y="920" as="targetPoint" />
            <Array as="points">
              <mxPoint x="200" y="920" />
              <mxPoint x="200" y="920" />
            </Array>
          </mxGeometry>
        </mxCell>
        <mxCell id="avbdHqin9oMnhoK1nbsH-47" value="&lt;font face=&quot;Ubuntu&quot; color=&quot;#ffffff&quot;&gt;&lt;b&gt;Markdown Lint Check&lt;/b&gt;&lt;/font&gt;" style="ellipse;whiteSpace=wrap;html=1;aspect=fixed;strokeColor=none;strokeWidth=3;fillColor=#2184F7;" parent="1" vertex="1">
          <mxGeometry x="40" y="880.01" width="80" height="80" as="geometry" />
        </mxCell>
        <mxCell id="iMWLYqXpcg_YgM4Je9na-5" style="edgeStyle=orthogonalEdgeStyle;rounded=0;orthogonalLoop=1;jettySize=auto;html=1;exitX=1;exitY=0.5;exitDx=0;exitDy=0;entryX=0;entryY=0.5;entryDx=0;entryDy=0;strokeColor=#455964;strokeWidth=3;curved=1;" edge="1" parent="1" source="avbdHqin9oMnhoK1nbsH-48" target="avbdHqin9oMnhoK1nbsH-50">
          <mxGeometry relative="1" as="geometry">
            <Array as="points">
              <mxPoint x="240" y="1160" />
              <mxPoint x="240" y="920" />
            </Array>
          </mxGeometry>
        </mxCell>
        <mxCell id="avbdHqin9oMnhoK1nbsH-48" value="&lt;font face=&quot;Ubuntu&quot; color=&quot;#ffffff&quot;&gt;&lt;b&gt;Markdown Link Check&lt;/b&gt;&lt;/font&gt;" style="ellipse;whiteSpace=wrap;html=1;aspect=fixed;strokeColor=none;strokeWidth=3;fillColor=#2184F7;" parent="1" vertex="1">
          <mxGeometry x="40" y="1120" width="80" height="80" as="geometry" />
        </mxCell>
        <mxCell id="avbdHqin9oMnhoK1nbsH-50" value="&lt;font color=&quot;#ffffff&quot; face=&quot;Ubuntu&quot;&gt;&lt;b&gt;Tests&lt;/b&gt;&lt;/font&gt;" style="ellipse;whiteSpace=wrap;html=1;aspect=fixed;strokeColor=none;strokeWidth=3;fillColor=#2184F7;" parent="1" vertex="1">
          <mxGeometry x="280" y="880" width="80" height="80" as="geometry" />
        </mxCell>
        <mxCell id="avbdHqin9oMnhoK1nbsH-54" value="" style="shape=image;verticalLabelPosition=bottom;labelBackgroundColor=default;verticalAlign=top;aspect=fixed;imageAspect=0;image=data:image/jpeg,/9j/4AAQSkZJRgABAQAAAQABAAD/2wCEAAkGBxASDxUQEhAVEBAVERAYEBAXFxUYFhUXGBIXFhYVFRkYHSggGRonGxUTIjEhJSktLi4uFx8zODMsNygtLysBCgoKDg0OGxAQGy0lICEtKy0vLS0tLS4rLSstLS0tLS0tKy0tLS0tLS0tLS0tLS0tLS0tLS0tLS0tLS0tLS0tLf/AABEIAOEA4QMBIgACEQEDEQH/xAAcAAEAAgMBAQEAAAAAAAAAAAAABgcBBAUDAgj/xABDEAACAQICBgYHBAgFBQAAAAAAAQIDBAYRBRIhMUFRByIyYYGhE0JSYnGRwSNysdEUM2OCkqLC8ESy0uHxJENTo7P/xAAaAQEAAgMBAAAAAAAAAAAAAAAAAwQBAgUG/8QAKhEAAgIBAwMEAgIDAQAAAAAAAAECAxEEEiEFMVETIkGxMpFCgWFxoSP/2gAMAwEAAhEDEQA/ALxAAAAAAAAAAMNgGTDZGtM41tKGcVL01RepDbt75bkQnSmPburmoatCO3srOWX3n9EaOyKKl2tpq4by/CLWr3EILOU4xXNtL8TiXmM7CnsddTfKCc/OOzzKduK86ktacnOT3yk235nwRu5/Bz59Vl/GP7LPq9JNquzRrS78oL+o8JdJlLhaz8ZRK3Br6siu+pXv5/4WOukynxtZ/wAcfyPWn0l2/rW9VfBwf4tFZgx6sguo3+f+Fu2mPLCexzlS+/FpfNZo7tppKhVWdOrCovdkn+BQoW/PjwfE2Vz+SaHVZr8kmfoXMyUtovF97Q2Kr6SPsVM5L555+ZMtDdIdCfVuIuhL2lnKD+W1f3tJI2RZfq6hTPhvD/yTcHjbXEKkVOElODXVlFpp/Bo9iQvAAAAAAAAAAAAAAAAAAAGGyE4wxqqLlQt8pVk8p1N8YbNy5y8l5GHJLuRW3Qqjukzu6fxJQtINzlrVMurRTWu/Dgu9lY6fxbc3Ty1nRpcKUG1mvfe+X4dxxK9aU5Oc5Oc5POUm8233nwVpWORwdRr7LeFwjBkAjKAAAAAAAAAAAAAAABvaK0xcW0tajUcdu2O+MvjHc/xLJw3jijcNU6qVCs+ym+pP4Se59z8yqDBvGbiWtPq7KXxyvB+hkzJVWFMbToNUrhupQySjP1qfx9qPmvItC2rxnFTjJSjJJxknmmuaLMZKR6DT6mF0cx/R6gA2LAAAAAAAAAAMNmSEY+xS6K/RqMsqzS9JNZdSL4L3n5LwMSeFkiutjVBykaOOMYdq2t5c1VqpvNPPJwg+e/NlfAFSUtzyea1F8rpbpAAGpXAAAAAAAAAAAAAAAAAAAAABIsI4onaT1ZZzt5PrQ4xb9aH1XEjoMptdiSu2Vct0e5f9pcwqQjUhJShJJxktzR7lR4HxM7aoqNRt285Lbn+rk32tvq8/mW1GSe7ai3CW5HpdNqY3wyu/yfQANiyAAAADEmAcbFWm42lvKo2nUeaox5yy2eC3spavWlObnOTlOTblJ723vZ3Maaad1dSyf2VNyhSXB5PrS8Wl4JHAKtktzPOa/UerZhdkAARlAAAAAAAAAAAAAAAAAAAAGadNykoxTlJtKMUs229ySQMiMW2klm28klvb5IlGj8BXtRZyUaK995y+Uc/Ml2C8JRt0q1VKVxJLZsyp9y7+bJckTwq+WdjTdNTjut/RVN50eXkFnCVOr7qbi/DW2eZFry0qUpunUg6c1vi9/wDx3l/5HCxXh6F3RayUayWdOpltT9l+6zMql8G+o6ZDbmvv4KWLL6N8Qa8f0Oo+tBZ0XzgvV+Kz+XwK2nFptNZNNprk08mj1s7qdKpGrB6s4STi/h9OBFGW1nM017psUv2foAGjobSULihCtDdKKzXsvjF96eZvFs9RGSksoAAGQRnH2lvQWclF5VKvUhz29t/w57e9ElbKk6SNIelvPRp5xpQUe7WfWl/SvA0seIlTW3enS2u74IoZAKh5gAAAAAAAAAAAAAAAAAAAH1TpuUlGKcpNpRit7b3JAyuTFODk1GKcpNpRitrbe5JcS1sF4RVsvTVkpXD3cVTT4LnLm/D4sFYSVslWqpSuGt29U1yXfzZLyxXXjlnd0Oh2e+a5+ggATHUBhmTW0jewo0pVaktWEVm3/fEGG0lllL4qpqN9cRW70sn8+s/Ns5R7X1y6tWdV75znJ92bbyPEpPueSsac215J10X6X1akrSW6ec6fdJLrL5JPwZZaKD0ZeyoVoVo9qE08ua4rxWa8S97SvGpCM4vOMoxlF801mixVLKwdzpl26vY/j6PYAEp0jxuqyhCU3ujGTfgsygq9eVScqktspylKT7283+JcWPLr0ej6zTyckoL99qL8mymiC584OJ1WfujH+wACA5AAAAAAAAAAAAAAAAAPqnByajFOUm0oxW1tvckDOMmKcHJqMU5SbSjFLNtvgkWtgrCStoqtWSlcSSyW9U1luXvbdr/tsFYRjbRVaslK5aeXFU0+Efe5v+3LkixXXjlnd0Oh2e+ffx4CRkAmOoADwu7qFOEqk5KEIpuUnuSAbwZu7mFOEqk5KMIpuUnuSRUOLcUTvJ6sc4W8ezB7HJ+1L6LgYxfiad5U1I9W3hJ+jjtTl78/ouGZHitZZnhHA1utdnsh2+wACI5gLf6PL30lhBcabdN+G2P8riVAT7onuOtXp8GqUku/OUW/lqktT9xf6dPbcl5LIB85gsnoyFdK1Vq1pR9qus/CnJ/kVgWR0sy+yoL9pP8Ay/7lbla38jznUXm9/wBAAERQMxi28ks29yW99yJXofAV1WipzcbeL3KSbn4xW7xfgdvo4w9FQV5UjnOTfoM/Vjucsubefh8SfZE8KsrLOxpOnqUd9nz8FZ3PRrWUc4XEJv2XFxz8c3+BENI6OrUJ+jq03CXDPc++L3NF+HM07oaldUnTqR74S4xeW9f3tNpVLHBNf02DWa+GUYDoac0RVtazpVF3wmuzOPNfVcDnldrBw5wcHtYABg1ABmEHJqMU5SbSjFbW29yS4mTPczTpuTUYpyk3lGK2tvkkWrgrCUbeKrVUpXEktnCn3Lv5sYLwirZemrJSuGtnFU01uXOXN+HxlyRPXXjlnd0Oh2e+ff6CRkAmOoADwvLqFOEqk5asIpuUuSQMN45Zm6uIU4Oc5KMIrOUm8kkVDi3FE7uerHOFuuzDPt7e1PyyXAYuxRO7nqR6ttGWcI5bZNLtS88lwI6V7LM8I4Wt1vqeyHb7AAITlgAAAlnRlW1b/V4To1F8nGS/BkTO/gGeWkqHe6q/9M/yNofkixpXi6L/AMouYGAXT1WSBdLK+zoP36n+VFcFmdK8P+noy/bNfOnL8isypb+R5zqK/wDd/wBAwzIIygXxoSKVtRS3KjSy/gRvEW6P9MKvaRpt/aUcoSXNZdWXwy2fFMlJdi8rJ62manWmvAABklObp3Q1K6oulUWzfGS7UZcJIpvTmh6trVdKouL1J8Jxz3ry2cC9jmad0NSuqTp1Fz1J+tB+1EjnDcUtZpFcsr8ijAdDTmh6trWdKou+E12Zrmvy4GhTg5NRinKTaUYra2+SRWxh4POyhKMtrXJmnTcmoxTlJtKMVvbe5ItXBWElbJVqqzuJLdvVNPgve3ZsYKwkreKrVUpXDSy/ZrLsrv5slyRPXXjlnb0Oh2e+ff6CRkAmOoADxu7iNODnOSjGKblJ7kkDDeDF5dQpQdSpJQhFZyk3kkVDi7E87yerHOFvBvUjn23wnNfguBnF2J53c9WGcbaLWrB75NetL6LgR0r2WZ4RwtbrfU9kO32AAQnLAAAAAAB3sCLPSVD71T/4zOCSbo4pa2kIv2KdWXko/wBRtD8kT6ZZuj/tFvAyC6eqIv0jW2vo+bW10505+Clk/KTKiL60raqrQqUms1OnOPzi0UJk+O/iVrlzk4fVYYmpeUZABCco2tF6QqW9WNalLKcfk1xUlxRcWGMQUrulrRajVSXpaXGL+qfMpM2tGaQq29VVaUnGS38pLPNxkuKeRJCe0u6TWSpeH2L7zMnGw1p+neUtePVmtlSk2m4v6rkzsllPJ6OElJZXYAAybHN05oaldUnSqrZnnGS7UXwaZxcI4Ohat1ajVSvnJKS7MY55LVT4tb335fGWAxtWckUqYSmptcowkZAMkoAPG5uYU4Oc5KMIrOUm8kkDDeDF5dQp05VJyUIRTcpPckVFi/E07ypqR6tvGT1I7U5cNaf0XDMxi3FE7yerHWhbrswz7TT7csvDJcCPFayzPCOFrdb6j2Q7fYABEcsAAAAAAAAAE56KaOdetP2acIr96Tf9BBi1ejGx1LN1Xvq1JP8Adj1V5qT8SSpZkXunw3Xp+CXgyC0ejwGUvjfR3oL6ol2Z/aR/ebz/AJlIukhHSdorXt43C7VJ5S74SaXk8n8yOyOUUuoVb6W13XJWAAKp5sAAA2tF6QqW9WNak8px+TXFNcUXFhnEFK7pa0dlSOr6Wnxi2uHNb8mUmbWjNIVberGrSlqyi18JLjGS4pkkJ7S7o9W6Xh9i/AcTDOIaV3S1o9Wov1lLPNxfPvTy2P6nazLKeT0cJqa3R7GQAZNgAeF3dQpwdSclCEVnKTeSQMN4WWLy6hSpyqTkowim5SfBIqLF2J53c9SPVtoyzhHc5NetPzyXAYuxRO8nqxThbxb1I57Z7dk5/RcCOlayzPCOFrdb6nsh2+wACI5YAAAAAAAAAAAB9UqUpSUIrOUmlFc23ki99DWao29OivUpxjnzaW1/PMrHo50W6t2qrX2dFNt8HJrKK82/AtqJYpjxk7vS6sRc38mQATHVB43VCNSEoTSlCUWpRfFNZNHsAGslD6c0bK2uJ0JLsy6r5wfZfy88zRLX6QtAO4oqtBZ1qSk9X24b5L4rLNePMqcqTjtZ5fV6f0bMfD7GQAaFUAAA2tGaRq29VVaUtWa8U1szi1xTyXyLiwziCleUtePVnHJVIPfF5ea5MpM2tGaQqW9VVaUtWcfk1xUlxRJCe0u6TVul4f4l+Ag2iOkWhJJXEJUp8ZRTlB/LavM3bzpAsYxzhKdWXCKi15yySLG+Pk7i1dLWdyJNdXEacHOclGMU3KT3JIqHF+J53c9WGcLaLWrB7HJ+1L6I8cSYnrXjyklTpJtxprPwcn6zOGQWWZ4RydZrvU9kO32AARHMAAAAAAAAAAAAABMejvQDq1v0mpH7Km/s890qmfmo7fHLkbRWXglpqds1BE4wdob9FtYwf6yXWqv3nw8EkvA7phIyW0scHqq4KEVFfAABk3AAAMNFVY/w16Co7mkl6GcuvFL9XJ8fuvyfxRax5XFCM4OE4qUZJqUXuafBmso7kV9Tp43Q2v8Ao/PwJFi/DE7SetHOVvJ9SXGL9iX0fEjpUaaeDzNlcq5bZdwADBGAAAAAAAAAAAAAAAAAAAAAADc0Toyrc1VRpLOT2tvYorjKT5GTaMXJ4Xc98PaFqXddUo5qOx1amWyEefx5IurR9lCjSjSprVhFZRX583nm/E08PaDpWlH0dNbXk6k3vlLLe+7uOqWoQ2o9Ho9KqY892AAbl0AAAAAAAAA8bq2hUhKE4qcJJqUWtjRVOLcH1LZurSTqW+b4Nyp/e5x975luHzKOayNZQUitqdNC+OH38n57BZWJsAxnnUtcqc+NF7IS74v1X3bvgV1d2tSlN06kHCae2L3/AO670VpQcTz9+mspfuXHk8gAaFYAAAAAAAAAAAAAAAAExw3gSrVcalx9lR3+j/7kl3+yvM2UW+xNVRO14gjg6B0HWu6mpTj1U16So+zBd/N9xb2H9B0rSl6Oms3vnUeWtJ833dxuWFjTo01SpQUIRWyK/HvfebJZhBRO/pdHGhZ7swkZANy6AAAAAAAAAAAAAAADR0pomhcQ1K1NTXB+tHvi96ZvAGJRUlhlZ6b6O6ketbT9Iv8AxzaUl8JbE/HIh1/o+tQlq1qcqcuGa2P4Pc/Av08bi2hOLjOEZxe+Mkmn4MilUn2Odd0yuXMOPo/P4Lf0hgaxqLZTdF86by/lecfIj1z0aSzzp3Sa4KUNvzUvoRuqRzp9Ouj2WSAgllfo9vo9n0VRd0mn/MjSngrSK/w2fwnS/wBRpsl4IHpbl/F/o4AO9HBukX/hX/HS/wBRsUcBaQlvhTh96a/pzGyXgwtNc/4v9EZBOaHRrWfbuIR56sZS/Fo7mjujy0htqSnXfJvVj8o7fm2bKqTJ4dPvk+VgqylSlKSjGLlJ7opNt+CJRojAd3VadVK3p7M28nNruiuPxLPsNFUKKypUoU+erFJv4vezcSJI0r5L9XS4rmbycPQWFbW12whr1ONWeTl4cI+B3EjIJUkjpQhGCxFYAAMm4AAAAAAAAAAAAAAAAAAAAAAAAPlgGPkyjJgA2NWBIAGGDKAMG5kAAwAAAAAAAAAAAAAAAf/Z;" parent="1" vertex="1">
          <mxGeometry x="60" y="590" width="40" height="40" as="geometry" />
        </mxCell>
        <mxCell id="avbdHqin9oMnhoK1nbsH-55" value="" style="shape=image;verticalLabelPosition=bottom;labelBackgroundColor=default;verticalAlign=top;aspect=fixed;imageAspect=0;image=data:image/jpeg,/9j/4AAQSkZJRgABAQAAAQABAAD/2wCEAAkGBxASDxUQEhAVEBAVERAYEBAXFxUYFhUXGBIXFhYVFRkYHSggGRonGxUTIjEhJSktLi4uFx8zODMsNygtLysBCgoKDg0OGxAQGy0lICEtKy0vLS0tLS4rLSstLS0tLS0tKy0tLS0tLS0tLS0tLS0tLS0tLS0tLS0tLS0tLS0tLf/AABEIAOEA4QMBIgACEQEDEQH/xAAcAAEAAgMBAQEAAAAAAAAAAAAABgcBBAUDAgj/xABDEAACAQICBgYHBAgFBQAAAAAAAQIDBAYRBRIhMUFRByIyYYGhE0JSYnGRwSNysdEUM2OCkqLC8ESy0uHxJENTo7P/xAAaAQEAAgMBAAAAAAAAAAAAAAAAAwQBAgUG/8QAKhEAAgIBAwMEAgIDAQAAAAAAAAECAxEEEiEFMVETIkGxMpFCgWFxoSP/2gAMAwEAAhEDEQA/ALxAAAAAAAAAAMNgGTDZGtM41tKGcVL01RepDbt75bkQnSmPburmoatCO3srOWX3n9EaOyKKl2tpq4by/CLWr3EILOU4xXNtL8TiXmM7CnsddTfKCc/OOzzKduK86ktacnOT3yk235nwRu5/Bz59Vl/GP7LPq9JNquzRrS78oL+o8JdJlLhaz8ZRK3Br6siu+pXv5/4WOukynxtZ/wAcfyPWn0l2/rW9VfBwf4tFZgx6sguo3+f+Fu2mPLCexzlS+/FpfNZo7tppKhVWdOrCovdkn+BQoW/PjwfE2Vz+SaHVZr8kmfoXMyUtovF97Q2Kr6SPsVM5L555+ZMtDdIdCfVuIuhL2lnKD+W1f3tJI2RZfq6hTPhvD/yTcHjbXEKkVOElODXVlFpp/Bo9iQvAAAAAAAAAAAAAAAAAAAGGyE4wxqqLlQt8pVk8p1N8YbNy5y8l5GHJLuRW3Qqjukzu6fxJQtINzlrVMurRTWu/Dgu9lY6fxbc3Ty1nRpcKUG1mvfe+X4dxxK9aU5Oc5Oc5POUm8233nwVpWORwdRr7LeFwjBkAjKAAAAAAAAAAAAAAABvaK0xcW0tajUcdu2O+MvjHc/xLJw3jijcNU6qVCs+ym+pP4Se59z8yqDBvGbiWtPq7KXxyvB+hkzJVWFMbToNUrhupQySjP1qfx9qPmvItC2rxnFTjJSjJJxknmmuaLMZKR6DT6mF0cx/R6gA2LAAAAAAAAAAMNmSEY+xS6K/RqMsqzS9JNZdSL4L3n5LwMSeFkiutjVBykaOOMYdq2t5c1VqpvNPPJwg+e/NlfAFSUtzyea1F8rpbpAAGpXAAAAAAAAAAAAAAAAAAAAABIsI4onaT1ZZzt5PrQ4xb9aH1XEjoMptdiSu2Vct0e5f9pcwqQjUhJShJJxktzR7lR4HxM7aoqNRt285Lbn+rk32tvq8/mW1GSe7ai3CW5HpdNqY3wyu/yfQANiyAAAADEmAcbFWm42lvKo2nUeaox5yy2eC3spavWlObnOTlOTblJ723vZ3Maaad1dSyf2VNyhSXB5PrS8Wl4JHAKtktzPOa/UerZhdkAARlAAAAAAAAAAAAAAAAAAAAGadNykoxTlJtKMUs229ySQMiMW2klm28klvb5IlGj8BXtRZyUaK995y+Uc/Ml2C8JRt0q1VKVxJLZsyp9y7+bJckTwq+WdjTdNTjut/RVN50eXkFnCVOr7qbi/DW2eZFry0qUpunUg6c1vi9/wDx3l/5HCxXh6F3RayUayWdOpltT9l+6zMql8G+o6ZDbmvv4KWLL6N8Qa8f0Oo+tBZ0XzgvV+Kz+XwK2nFptNZNNprk08mj1s7qdKpGrB6s4STi/h9OBFGW1nM017psUv2foAGjobSULihCtDdKKzXsvjF96eZvFs9RGSksoAAGQRnH2lvQWclF5VKvUhz29t/w57e9ElbKk6SNIelvPRp5xpQUe7WfWl/SvA0seIlTW3enS2u74IoZAKh5gAAAAAAAAAAAAAAAAAAAH1TpuUlGKcpNpRit7b3JAyuTFODk1GKcpNpRitrbe5JcS1sF4RVsvTVkpXD3cVTT4LnLm/D4sFYSVslWqpSuGt29U1yXfzZLyxXXjlnd0Oh2e+a5+ggATHUBhmTW0jewo0pVaktWEVm3/fEGG0lllL4qpqN9cRW70sn8+s/Ns5R7X1y6tWdV75znJ92bbyPEpPueSsac215J10X6X1akrSW6ec6fdJLrL5JPwZZaKD0ZeyoVoVo9qE08ua4rxWa8S97SvGpCM4vOMoxlF801mixVLKwdzpl26vY/j6PYAEp0jxuqyhCU3ujGTfgsygq9eVScqktspylKT7283+JcWPLr0ej6zTyckoL99qL8mymiC584OJ1WfujH+wACA5AAAAAAAAAAAAAAAAAPqnByajFOUm0oxW1tvckDOMmKcHJqMU5SbSjFLNtvgkWtgrCStoqtWSlcSSyW9U1luXvbdr/tsFYRjbRVaslK5aeXFU0+Efe5v+3LkixXXjlnd0Oh2e+ffx4CRkAmOoADwu7qFOEqk5KEIpuUnuSAbwZu7mFOEqk5KMIpuUnuSRUOLcUTvJ6sc4W8ezB7HJ+1L6LgYxfiad5U1I9W3hJ+jjtTl78/ouGZHitZZnhHA1utdnsh2+wACI5gLf6PL30lhBcabdN+G2P8riVAT7onuOtXp8GqUku/OUW/lqktT9xf6dPbcl5LIB85gsnoyFdK1Vq1pR9qus/CnJ/kVgWR0sy+yoL9pP8Ay/7lbla38jznUXm9/wBAAERQMxi28ks29yW99yJXofAV1WipzcbeL3KSbn4xW7xfgdvo4w9FQV5UjnOTfoM/Vjucsubefh8SfZE8KsrLOxpOnqUd9nz8FZ3PRrWUc4XEJv2XFxz8c3+BENI6OrUJ+jq03CXDPc++L3NF+HM07oaldUnTqR74S4xeW9f3tNpVLHBNf02DWa+GUYDoac0RVtazpVF3wmuzOPNfVcDnldrBw5wcHtYABg1ABmEHJqMU5SbSjFbW29yS4mTPczTpuTUYpyk3lGK2tvkkWrgrCUbeKrVUpXEktnCn3Lv5sYLwirZemrJSuGtnFU01uXOXN+HxlyRPXXjlnd0Oh2e+ff6CRkAmOoADwvLqFOEqk5asIpuUuSQMN45Zm6uIU4Oc5KMIrOUm8kkVDi3FE7uerHOFuuzDPt7e1PyyXAYuxRO7nqR6ttGWcI5bZNLtS88lwI6V7LM8I4Wt1vqeyHb7AAITlgAAAlnRlW1b/V4To1F8nGS/BkTO/gGeWkqHe6q/9M/yNofkixpXi6L/AMouYGAXT1WSBdLK+zoP36n+VFcFmdK8P+noy/bNfOnL8isypb+R5zqK/wDd/wBAwzIIygXxoSKVtRS3KjSy/gRvEW6P9MKvaRpt/aUcoSXNZdWXwy2fFMlJdi8rJ62manWmvAABklObp3Q1K6oulUWzfGS7UZcJIpvTmh6trVdKouL1J8Jxz3ry2cC9jmad0NSuqTp1Fz1J+tB+1EjnDcUtZpFcsr8ijAdDTmh6trWdKou+E12Zrmvy4GhTg5NRinKTaUYra2+SRWxh4POyhKMtrXJmnTcmoxTlJtKMVvbe5ItXBWElbJVqqzuJLdvVNPgve3ZsYKwkreKrVUpXDSy/ZrLsrv5slyRPXXjlnb0Oh2e+ff6CRkAmOoADxu7iNODnOSjGKblJ7kkDDeDF5dQpQdSpJQhFZyk3kkVDi7E87yerHOFvBvUjn23wnNfguBnF2J53c9WGcbaLWrB75NetL6LgR0r2WZ4RwtbrfU9kO32AAQnLAAAAAAB3sCLPSVD71T/4zOCSbo4pa2kIv2KdWXko/wBRtD8kT6ZZuj/tFvAyC6eqIv0jW2vo+bW10505+Clk/KTKiL60raqrQqUms1OnOPzi0UJk+O/iVrlzk4fVYYmpeUZABCco2tF6QqW9WNalLKcfk1xUlxRcWGMQUrulrRajVSXpaXGL+qfMpM2tGaQq29VVaUnGS38pLPNxkuKeRJCe0u6TWSpeH2L7zMnGw1p+neUtePVmtlSk2m4v6rkzsllPJ6OElJZXYAAybHN05oaldUnSqrZnnGS7UXwaZxcI4Ohat1ajVSvnJKS7MY55LVT4tb335fGWAxtWckUqYSmptcowkZAMkoAPG5uYU4Oc5KMIrOUm8kkDDeDF5dQp05VJyUIRTcpPckVFi/E07ypqR6tvGT1I7U5cNaf0XDMxi3FE7yerHWhbrswz7TT7csvDJcCPFayzPCOFrdb6j2Q7fYABEcsAAAAAAAAAE56KaOdetP2acIr96Tf9BBi1ejGx1LN1Xvq1JP8Adj1V5qT8SSpZkXunw3Xp+CXgyC0ejwGUvjfR3oL6ol2Z/aR/ebz/AJlIukhHSdorXt43C7VJ5S74SaXk8n8yOyOUUuoVb6W13XJWAAKp5sAAA2tF6QqW9WNak8px+TXFNcUXFhnEFK7pa0dlSOr6Wnxi2uHNb8mUmbWjNIVberGrSlqyi18JLjGS4pkkJ7S7o9W6Xh9i/AcTDOIaV3S1o9Wov1lLPNxfPvTy2P6nazLKeT0cJqa3R7GQAZNgAeF3dQpwdSclCEVnKTeSQMN4WWLy6hSpyqTkowim5SfBIqLF2J53c9SPVtoyzhHc5NetPzyXAYuxRO8nqxThbxb1I57Z7dk5/RcCOlayzPCOFrdb6nsh2+wACI5YAAAAAAAAAAAB9UqUpSUIrOUmlFc23ki99DWao29OivUpxjnzaW1/PMrHo50W6t2qrX2dFNt8HJrKK82/AtqJYpjxk7vS6sRc38mQATHVB43VCNSEoTSlCUWpRfFNZNHsAGslD6c0bK2uJ0JLsy6r5wfZfy88zRLX6QtAO4oqtBZ1qSk9X24b5L4rLNePMqcqTjtZ5fV6f0bMfD7GQAaFUAAA2tGaRq29VVaUtWa8U1szi1xTyXyLiwziCleUtePVnHJVIPfF5ea5MpM2tGaQqW9VVaUtWcfk1xUlxRJCe0u6TVul4f4l+Ag2iOkWhJJXEJUp8ZRTlB/LavM3bzpAsYxzhKdWXCKi15yySLG+Pk7i1dLWdyJNdXEacHOclGMU3KT3JIqHF+J53c9WGcLaLWrB7HJ+1L6I8cSYnrXjyklTpJtxprPwcn6zOGQWWZ4RydZrvU9kO32AARHMAAAAAAAAAAAAABMejvQDq1v0mpH7Km/s890qmfmo7fHLkbRWXglpqds1BE4wdob9FtYwf6yXWqv3nw8EkvA7phIyW0scHqq4KEVFfAABk3AAAMNFVY/w16Co7mkl6GcuvFL9XJ8fuvyfxRax5XFCM4OE4qUZJqUXuafBmso7kV9Tp43Q2v8Ao/PwJFi/DE7SetHOVvJ9SXGL9iX0fEjpUaaeDzNlcq5bZdwADBGAAAAAAAAAAAAAAAAAAAAAADc0Toyrc1VRpLOT2tvYorjKT5GTaMXJ4Xc98PaFqXddUo5qOx1amWyEefx5IurR9lCjSjSprVhFZRX583nm/E08PaDpWlH0dNbXk6k3vlLLe+7uOqWoQ2o9Ho9KqY892AAbl0AAAAAAAAA8bq2hUhKE4qcJJqUWtjRVOLcH1LZurSTqW+b4Nyp/e5x975luHzKOayNZQUitqdNC+OH38n57BZWJsAxnnUtcqc+NF7IS74v1X3bvgV1d2tSlN06kHCae2L3/AO670VpQcTz9+mspfuXHk8gAaFYAAAAAAAAAAAAAAAAExw3gSrVcalx9lR3+j/7kl3+yvM2UW+xNVRO14gjg6B0HWu6mpTj1U16So+zBd/N9xb2H9B0rSl6Oms3vnUeWtJ833dxuWFjTo01SpQUIRWyK/HvfebJZhBRO/pdHGhZ7swkZANy6AAAAAAAAAAAAAAADR0pomhcQ1K1NTXB+tHvi96ZvAGJRUlhlZ6b6O6ketbT9Iv8AxzaUl8JbE/HIh1/o+tQlq1qcqcuGa2P4Pc/Av08bi2hOLjOEZxe+Mkmn4MilUn2Odd0yuXMOPo/P4Lf0hgaxqLZTdF86by/lecfIj1z0aSzzp3Sa4KUNvzUvoRuqRzp9Ouj2WSAgllfo9vo9n0VRd0mn/MjSngrSK/w2fwnS/wBRpsl4IHpbl/F/o4AO9HBukX/hX/HS/wBRsUcBaQlvhTh96a/pzGyXgwtNc/4v9EZBOaHRrWfbuIR56sZS/Fo7mjujy0htqSnXfJvVj8o7fm2bKqTJ4dPvk+VgqylSlKSjGLlJ7opNt+CJRojAd3VadVK3p7M28nNruiuPxLPsNFUKKypUoU+erFJv4vezcSJI0r5L9XS4rmbycPQWFbW12whr1ONWeTl4cI+B3EjIJUkjpQhGCxFYAAMm4AAAAAAAAAAAAAAAAAAAAAAAAPlgGPkyjJgA2NWBIAGGDKAMG5kAAwAAAAAAAAAAAAAAAf/Z;" parent="1" vertex="1">
          <mxGeometry x="60" y="830" width="40" height="40" as="geometry" />
        </mxCell>
        <mxCell id="avbdHqin9oMnhoK1nbsH-56" value="" style="shape=image;verticalLabelPosition=bottom;labelBackgroundColor=default;verticalAlign=top;aspect=fixed;imageAspect=0;image=data:image/jpeg,/9j/4AAQSkZJRgABAQAAAQABAAD/2wCEAAkGBxASDxUQEhAVEBAVERAYEBAXFxUYFhUXGBIXFhYVFRkYHSggGRonGxUTIjEhJSktLi4uFx8zODMsNygtLysBCgoKDg0OGxAQGy0lICEtKy0vLS0tLS4rLSstLS0tLS0tKy0tLS0tLS0tLS0tLS0tLS0tLS0tLS0tLS0tLS0tLf/AABEIAOEA4QMBIgACEQEDEQH/xAAcAAEAAgMBAQEAAAAAAAAAAAAABgcBBAUDAgj/xABDEAACAQICBgYHBAgFBQAAAAAAAQIDBAYRBRIhMUFRByIyYYGhE0JSYnGRwSNysdEUM2OCkqLC8ESy0uHxJENTo7P/xAAaAQEAAgMBAAAAAAAAAAAAAAAAAwQBAgUG/8QAKhEAAgIBAwMEAgIDAQAAAAAAAAECAxEEEiEFMVETIkGxMpFCgWFxoSP/2gAMAwEAAhEDEQA/ALxAAAAAAAAAAMNgGTDZGtM41tKGcVL01RepDbt75bkQnSmPburmoatCO3srOWX3n9EaOyKKl2tpq4by/CLWr3EILOU4xXNtL8TiXmM7CnsddTfKCc/OOzzKduK86ktacnOT3yk235nwRu5/Bz59Vl/GP7LPq9JNquzRrS78oL+o8JdJlLhaz8ZRK3Br6siu+pXv5/4WOukynxtZ/wAcfyPWn0l2/rW9VfBwf4tFZgx6sguo3+f+Fu2mPLCexzlS+/FpfNZo7tppKhVWdOrCovdkn+BQoW/PjwfE2Vz+SaHVZr8kmfoXMyUtovF97Q2Kr6SPsVM5L555+ZMtDdIdCfVuIuhL2lnKD+W1f3tJI2RZfq6hTPhvD/yTcHjbXEKkVOElODXVlFpp/Bo9iQvAAAAAAAAAAAAAAAAAAAGGyE4wxqqLlQt8pVk8p1N8YbNy5y8l5GHJLuRW3Qqjukzu6fxJQtINzlrVMurRTWu/Dgu9lY6fxbc3Ty1nRpcKUG1mvfe+X4dxxK9aU5Oc5Oc5POUm8233nwVpWORwdRr7LeFwjBkAjKAAAAAAAAAAAAAAABvaK0xcW0tajUcdu2O+MvjHc/xLJw3jijcNU6qVCs+ym+pP4Se59z8yqDBvGbiWtPq7KXxyvB+hkzJVWFMbToNUrhupQySjP1qfx9qPmvItC2rxnFTjJSjJJxknmmuaLMZKR6DT6mF0cx/R6gA2LAAAAAAAAAAMNmSEY+xS6K/RqMsqzS9JNZdSL4L3n5LwMSeFkiutjVBykaOOMYdq2t5c1VqpvNPPJwg+e/NlfAFSUtzyea1F8rpbpAAGpXAAAAAAAAAAAAAAAAAAAAABIsI4onaT1ZZzt5PrQ4xb9aH1XEjoMptdiSu2Vct0e5f9pcwqQjUhJShJJxktzR7lR4HxM7aoqNRt285Lbn+rk32tvq8/mW1GSe7ai3CW5HpdNqY3wyu/yfQANiyAAAADEmAcbFWm42lvKo2nUeaox5yy2eC3spavWlObnOTlOTblJ723vZ3Maaad1dSyf2VNyhSXB5PrS8Wl4JHAKtktzPOa/UerZhdkAARlAAAAAAAAAAAAAAAAAAAAGadNykoxTlJtKMUs229ySQMiMW2klm28klvb5IlGj8BXtRZyUaK995y+Uc/Ml2C8JRt0q1VKVxJLZsyp9y7+bJckTwq+WdjTdNTjut/RVN50eXkFnCVOr7qbi/DW2eZFry0qUpunUg6c1vi9/wDx3l/5HCxXh6F3RayUayWdOpltT9l+6zMql8G+o6ZDbmvv4KWLL6N8Qa8f0Oo+tBZ0XzgvV+Kz+XwK2nFptNZNNprk08mj1s7qdKpGrB6s4STi/h9OBFGW1nM017psUv2foAGjobSULihCtDdKKzXsvjF96eZvFs9RGSksoAAGQRnH2lvQWclF5VKvUhz29t/w57e9ElbKk6SNIelvPRp5xpQUe7WfWl/SvA0seIlTW3enS2u74IoZAKh5gAAAAAAAAAAAAAAAAAAAH1TpuUlGKcpNpRit7b3JAyuTFODk1GKcpNpRitrbe5JcS1sF4RVsvTVkpXD3cVTT4LnLm/D4sFYSVslWqpSuGt29U1yXfzZLyxXXjlnd0Oh2e+a5+ggATHUBhmTW0jewo0pVaktWEVm3/fEGG0lllL4qpqN9cRW70sn8+s/Ns5R7X1y6tWdV75znJ92bbyPEpPueSsac215J10X6X1akrSW6ec6fdJLrL5JPwZZaKD0ZeyoVoVo9qE08ua4rxWa8S97SvGpCM4vOMoxlF801mixVLKwdzpl26vY/j6PYAEp0jxuqyhCU3ujGTfgsygq9eVScqktspylKT7283+JcWPLr0ej6zTyckoL99qL8mymiC584OJ1WfujH+wACA5AAAAAAAAAAAAAAAAAPqnByajFOUm0oxW1tvckDOMmKcHJqMU5SbSjFLNtvgkWtgrCStoqtWSlcSSyW9U1luXvbdr/tsFYRjbRVaslK5aeXFU0+Efe5v+3LkixXXjlnd0Oh2e+ffx4CRkAmOoADwu7qFOEqk5KEIpuUnuSAbwZu7mFOEqk5KMIpuUnuSRUOLcUTvJ6sc4W8ezB7HJ+1L6LgYxfiad5U1I9W3hJ+jjtTl78/ouGZHitZZnhHA1utdnsh2+wACI5gLf6PL30lhBcabdN+G2P8riVAT7onuOtXp8GqUku/OUW/lqktT9xf6dPbcl5LIB85gsnoyFdK1Vq1pR9qus/CnJ/kVgWR0sy+yoL9pP8Ay/7lbla38jznUXm9/wBAAERQMxi28ks29yW99yJXofAV1WipzcbeL3KSbn4xW7xfgdvo4w9FQV5UjnOTfoM/Vjucsubefh8SfZE8KsrLOxpOnqUd9nz8FZ3PRrWUc4XEJv2XFxz8c3+BENI6OrUJ+jq03CXDPc++L3NF+HM07oaldUnTqR74S4xeW9f3tNpVLHBNf02DWa+GUYDoac0RVtazpVF3wmuzOPNfVcDnldrBw5wcHtYABg1ABmEHJqMU5SbSjFbW29yS4mTPczTpuTUYpyk3lGK2tvkkWrgrCUbeKrVUpXEktnCn3Lv5sYLwirZemrJSuGtnFU01uXOXN+HxlyRPXXjlnd0Oh2e+ff6CRkAmOoADwvLqFOEqk5asIpuUuSQMN45Zm6uIU4Oc5KMIrOUm8kkVDi3FE7uerHOFuuzDPt7e1PyyXAYuxRO7nqR6ttGWcI5bZNLtS88lwI6V7LM8I4Wt1vqeyHb7AAITlgAAAlnRlW1b/V4To1F8nGS/BkTO/gGeWkqHe6q/9M/yNofkixpXi6L/AMouYGAXT1WSBdLK+zoP36n+VFcFmdK8P+noy/bNfOnL8isypb+R5zqK/wDd/wBAwzIIygXxoSKVtRS3KjSy/gRvEW6P9MKvaRpt/aUcoSXNZdWXwy2fFMlJdi8rJ62manWmvAABklObp3Q1K6oulUWzfGS7UZcJIpvTmh6trVdKouL1J8Jxz3ry2cC9jmad0NSuqTp1Fz1J+tB+1EjnDcUtZpFcsr8ijAdDTmh6trWdKou+E12Zrmvy4GhTg5NRinKTaUYra2+SRWxh4POyhKMtrXJmnTcmoxTlJtKMVvbe5ItXBWElbJVqqzuJLdvVNPgve3ZsYKwkreKrVUpXDSy/ZrLsrv5slyRPXXjlnb0Oh2e+ff6CRkAmOoADxu7iNODnOSjGKblJ7kkDDeDF5dQpQdSpJQhFZyk3kkVDi7E87yerHOFvBvUjn23wnNfguBnF2J53c9WGcbaLWrB75NetL6LgR0r2WZ4RwtbrfU9kO32AAQnLAAAAAAB3sCLPSVD71T/4zOCSbo4pa2kIv2KdWXko/wBRtD8kT6ZZuj/tFvAyC6eqIv0jW2vo+bW10505+Clk/KTKiL60raqrQqUms1OnOPzi0UJk+O/iVrlzk4fVYYmpeUZABCco2tF6QqW9WNalLKcfk1xUlxRcWGMQUrulrRajVSXpaXGL+qfMpM2tGaQq29VVaUnGS38pLPNxkuKeRJCe0u6TWSpeH2L7zMnGw1p+neUtePVmtlSk2m4v6rkzsllPJ6OElJZXYAAybHN05oaldUnSqrZnnGS7UXwaZxcI4Ohat1ajVSvnJKS7MY55LVT4tb335fGWAxtWckUqYSmptcowkZAMkoAPG5uYU4Oc5KMIrOUm8kkDDeDF5dQp05VJyUIRTcpPckVFi/E07ypqR6tvGT1I7U5cNaf0XDMxi3FE7yerHWhbrswz7TT7csvDJcCPFayzPCOFrdb6j2Q7fYABEcsAAAAAAAAAE56KaOdetP2acIr96Tf9BBi1ejGx1LN1Xvq1JP8Adj1V5qT8SSpZkXunw3Xp+CXgyC0ejwGUvjfR3oL6ol2Z/aR/ebz/AJlIukhHSdorXt43C7VJ5S74SaXk8n8yOyOUUuoVb6W13XJWAAKp5sAAA2tF6QqW9WNak8px+TXFNcUXFhnEFK7pa0dlSOr6Wnxi2uHNb8mUmbWjNIVberGrSlqyi18JLjGS4pkkJ7S7o9W6Xh9i/AcTDOIaV3S1o9Wov1lLPNxfPvTy2P6nazLKeT0cJqa3R7GQAZNgAeF3dQpwdSclCEVnKTeSQMN4WWLy6hSpyqTkowim5SfBIqLF2J53c9SPVtoyzhHc5NetPzyXAYuxRO8nqxThbxb1I57Z7dk5/RcCOlayzPCOFrdb6nsh2+wACI5YAAAAAAAAAAAB9UqUpSUIrOUmlFc23ki99DWao29OivUpxjnzaW1/PMrHo50W6t2qrX2dFNt8HJrKK82/AtqJYpjxk7vS6sRc38mQATHVB43VCNSEoTSlCUWpRfFNZNHsAGslD6c0bK2uJ0JLsy6r5wfZfy88zRLX6QtAO4oqtBZ1qSk9X24b5L4rLNePMqcqTjtZ5fV6f0bMfD7GQAaFUAAA2tGaRq29VVaUtWa8U1szi1xTyXyLiwziCleUtePVnHJVIPfF5ea5MpM2tGaQqW9VVaUtWcfk1xUlxRJCe0u6TVul4f4l+Ag2iOkWhJJXEJUp8ZRTlB/LavM3bzpAsYxzhKdWXCKi15yySLG+Pk7i1dLWdyJNdXEacHOclGMU3KT3JIqHF+J53c9WGcLaLWrB7HJ+1L6I8cSYnrXjyklTpJtxprPwcn6zOGQWWZ4RydZrvU9kO32AARHMAAAAAAAAAAAAABMejvQDq1v0mpH7Km/s890qmfmo7fHLkbRWXglpqds1BE4wdob9FtYwf6yXWqv3nw8EkvA7phIyW0scHqq4KEVFfAABk3AAAMNFVY/w16Co7mkl6GcuvFL9XJ8fuvyfxRax5XFCM4OE4qUZJqUXuafBmso7kV9Tp43Q2v8Ao/PwJFi/DE7SetHOVvJ9SXGL9iX0fEjpUaaeDzNlcq5bZdwADBGAAAAAAAAAAAAAAAAAAAAAADc0Toyrc1VRpLOT2tvYorjKT5GTaMXJ4Xc98PaFqXddUo5qOx1amWyEefx5IurR9lCjSjSprVhFZRX583nm/E08PaDpWlH0dNbXk6k3vlLLe+7uOqWoQ2o9Ho9KqY892AAbl0AAAAAAAAA8bq2hUhKE4qcJJqUWtjRVOLcH1LZurSTqW+b4Nyp/e5x975luHzKOayNZQUitqdNC+OH38n57BZWJsAxnnUtcqc+NF7IS74v1X3bvgV1d2tSlN06kHCae2L3/AO670VpQcTz9+mspfuXHk8gAaFYAAAAAAAAAAAAAAAAExw3gSrVcalx9lR3+j/7kl3+yvM2UW+xNVRO14gjg6B0HWu6mpTj1U16So+zBd/N9xb2H9B0rSl6Oms3vnUeWtJ833dxuWFjTo01SpQUIRWyK/HvfebJZhBRO/pdHGhZ7swkZANy6AAAAAAAAAAAAAAADR0pomhcQ1K1NTXB+tHvi96ZvAGJRUlhlZ6b6O6ketbT9Iv8AxzaUl8JbE/HIh1/o+tQlq1qcqcuGa2P4Pc/Av08bi2hOLjOEZxe+Mkmn4MilUn2Odd0yuXMOPo/P4Lf0hgaxqLZTdF86by/lecfIj1z0aSzzp3Sa4KUNvzUvoRuqRzp9Ouj2WSAgllfo9vo9n0VRd0mn/MjSngrSK/w2fwnS/wBRpsl4IHpbl/F/o4AO9HBukX/hX/HS/wBRsUcBaQlvhTh96a/pzGyXgwtNc/4v9EZBOaHRrWfbuIR56sZS/Fo7mjujy0htqSnXfJvVj8o7fm2bKqTJ4dPvk+VgqylSlKSjGLlJ7opNt+CJRojAd3VadVK3p7M28nNruiuPxLPsNFUKKypUoU+erFJv4vezcSJI0r5L9XS4rmbycPQWFbW12whr1ONWeTl4cI+B3EjIJUkjpQhGCxFYAAMm4AAAAAAAAAAAAAAAAAAAAAAAAPlgGPkyjJgA2NWBIAGGDKAMG5kAAwAAAAAAAAAAAAAAAf/Z;" parent="1" vertex="1">
          <mxGeometry x="60" y="1070" width="40" height="40" as="geometry" />
        </mxCell>
        <mxCell id="iMWLYqXpcg_YgM4Je9na-6" value="" style="shape=image;verticalLabelPosition=bottom;labelBackgroundColor=default;verticalAlign=top;aspect=fixed;imageAspect=0;image=data:image/jpeg,/9j/4AAQSkZJRgABAQAAAQABAAD/2wCEAAkGBxASDxUQEhAVEBAVERAYEBAXFxUYFhUXGBIXFhYVFRkYHSggGRonGxUTIjEhJSktLi4uFx8zODMsNygtLysBCgoKDg0OGxAQGy0lICEtKy0vLS0tLS4rLSstLS0tLS0tKy0tLS0tLS0tLS0tLS0tLS0tLS0tLS0tLS0tLS0tLf/AABEIAOEA4QMBIgACEQEDEQH/xAAcAAEAAgMBAQEAAAAAAAAAAAAABgcBBAUDAgj/xABDEAACAQICBgYHBAgFBQAAAAAAAQIDBAYRBRIhMUFRByIyYYGhE0JSYnGRwSNysdEUM2OCkqLC8ESy0uHxJENTo7P/xAAaAQEAAgMBAAAAAAAAAAAAAAAAAwQBAgUG/8QAKhEAAgIBAwMEAgIDAQAAAAAAAAECAxEEEiEFMVETIkGxMpFCgWFxoSP/2gAMAwEAAhEDEQA/ALxAAAAAAAAAAMNgGTDZGtM41tKGcVL01RepDbt75bkQnSmPburmoatCO3srOWX3n9EaOyKKl2tpq4by/CLWr3EILOU4xXNtL8TiXmM7CnsddTfKCc/OOzzKduK86ktacnOT3yk235nwRu5/Bz59Vl/GP7LPq9JNquzRrS78oL+o8JdJlLhaz8ZRK3Br6siu+pXv5/4WOukynxtZ/wAcfyPWn0l2/rW9VfBwf4tFZgx6sguo3+f+Fu2mPLCexzlS+/FpfNZo7tppKhVWdOrCovdkn+BQoW/PjwfE2Vz+SaHVZr8kmfoXMyUtovF97Q2Kr6SPsVM5L555+ZMtDdIdCfVuIuhL2lnKD+W1f3tJI2RZfq6hTPhvD/yTcHjbXEKkVOElODXVlFpp/Bo9iQvAAAAAAAAAAAAAAAAAAAGGyE4wxqqLlQt8pVk8p1N8YbNy5y8l5GHJLuRW3Qqjukzu6fxJQtINzlrVMurRTWu/Dgu9lY6fxbc3Ty1nRpcKUG1mvfe+X4dxxK9aU5Oc5Oc5POUm8233nwVpWORwdRr7LeFwjBkAjKAAAAAAAAAAAAAAABvaK0xcW0tajUcdu2O+MvjHc/xLJw3jijcNU6qVCs+ym+pP4Se59z8yqDBvGbiWtPq7KXxyvB+hkzJVWFMbToNUrhupQySjP1qfx9qPmvItC2rxnFTjJSjJJxknmmuaLMZKR6DT6mF0cx/R6gA2LAAAAAAAAAAMNmSEY+xS6K/RqMsqzS9JNZdSL4L3n5LwMSeFkiutjVBykaOOMYdq2t5c1VqpvNPPJwg+e/NlfAFSUtzyea1F8rpbpAAGpXAAAAAAAAAAAAAAAAAAAAABIsI4onaT1ZZzt5PrQ4xb9aH1XEjoMptdiSu2Vct0e5f9pcwqQjUhJShJJxktzR7lR4HxM7aoqNRt285Lbn+rk32tvq8/mW1GSe7ai3CW5HpdNqY3wyu/yfQANiyAAAADEmAcbFWm42lvKo2nUeaox5yy2eC3spavWlObnOTlOTblJ723vZ3Maaad1dSyf2VNyhSXB5PrS8Wl4JHAKtktzPOa/UerZhdkAARlAAAAAAAAAAAAAAAAAAAAGadNykoxTlJtKMUs229ySQMiMW2klm28klvb5IlGj8BXtRZyUaK995y+Uc/Ml2C8JRt0q1VKVxJLZsyp9y7+bJckTwq+WdjTdNTjut/RVN50eXkFnCVOr7qbi/DW2eZFry0qUpunUg6c1vi9/wDx3l/5HCxXh6F3RayUayWdOpltT9l+6zMql8G+o6ZDbmvv4KWLL6N8Qa8f0Oo+tBZ0XzgvV+Kz+XwK2nFptNZNNprk08mj1s7qdKpGrB6s4STi/h9OBFGW1nM017psUv2foAGjobSULihCtDdKKzXsvjF96eZvFs9RGSksoAAGQRnH2lvQWclF5VKvUhz29t/w57e9ElbKk6SNIelvPRp5xpQUe7WfWl/SvA0seIlTW3enS2u74IoZAKh5gAAAAAAAAAAAAAAAAAAAH1TpuUlGKcpNpRit7b3JAyuTFODk1GKcpNpRitrbe5JcS1sF4RVsvTVkpXD3cVTT4LnLm/D4sFYSVslWqpSuGt29U1yXfzZLyxXXjlnd0Oh2e+a5+ggATHUBhmTW0jewo0pVaktWEVm3/fEGG0lllL4qpqN9cRW70sn8+s/Ns5R7X1y6tWdV75znJ92bbyPEpPueSsac215J10X6X1akrSW6ec6fdJLrL5JPwZZaKD0ZeyoVoVo9qE08ua4rxWa8S97SvGpCM4vOMoxlF801mixVLKwdzpl26vY/j6PYAEp0jxuqyhCU3ujGTfgsygq9eVScqktspylKT7283+JcWPLr0ej6zTyckoL99qL8mymiC584OJ1WfujH+wACA5AAAAAAAAAAAAAAAAAPqnByajFOUm0oxW1tvckDOMmKcHJqMU5SbSjFLNtvgkWtgrCStoqtWSlcSSyW9U1luXvbdr/tsFYRjbRVaslK5aeXFU0+Efe5v+3LkixXXjlnd0Oh2e+ffx4CRkAmOoADwu7qFOEqk5KEIpuUnuSAbwZu7mFOEqk5KMIpuUnuSRUOLcUTvJ6sc4W8ezB7HJ+1L6LgYxfiad5U1I9W3hJ+jjtTl78/ouGZHitZZnhHA1utdnsh2+wACI5gLf6PL30lhBcabdN+G2P8riVAT7onuOtXp8GqUku/OUW/lqktT9xf6dPbcl5LIB85gsnoyFdK1Vq1pR9qus/CnJ/kVgWR0sy+yoL9pP8Ay/7lbla38jznUXm9/wBAAERQMxi28ks29yW99yJXofAV1WipzcbeL3KSbn4xW7xfgdvo4w9FQV5UjnOTfoM/Vjucsubefh8SfZE8KsrLOxpOnqUd9nz8FZ3PRrWUc4XEJv2XFxz8c3+BENI6OrUJ+jq03CXDPc++L3NF+HM07oaldUnTqR74S4xeW9f3tNpVLHBNf02DWa+GUYDoac0RVtazpVF3wmuzOPNfVcDnldrBw5wcHtYABg1ABmEHJqMU5SbSjFbW29yS4mTPczTpuTUYpyk3lGK2tvkkWrgrCUbeKrVUpXEktnCn3Lv5sYLwirZemrJSuGtnFU01uXOXN+HxlyRPXXjlnd0Oh2e+ff6CRkAmOoADwvLqFOEqk5asIpuUuSQMN45Zm6uIU4Oc5KMIrOUm8kkVDi3FE7uerHOFuuzDPt7e1PyyXAYuxRO7nqR6ttGWcI5bZNLtS88lwI6V7LM8I4Wt1vqeyHb7AAITlgAAAlnRlW1b/V4To1F8nGS/BkTO/gGeWkqHe6q/9M/yNofkixpXi6L/AMouYGAXT1WSBdLK+zoP36n+VFcFmdK8P+noy/bNfOnL8isypb+R5zqK/wDd/wBAwzIIygXxoSKVtRS3KjSy/gRvEW6P9MKvaRpt/aUcoSXNZdWXwy2fFMlJdi8rJ62manWmvAABklObp3Q1K6oulUWzfGS7UZcJIpvTmh6trVdKouL1J8Jxz3ry2cC9jmad0NSuqTp1Fz1J+tB+1EjnDcUtZpFcsr8ijAdDTmh6trWdKou+E12Zrmvy4GhTg5NRinKTaUYra2+SRWxh4POyhKMtrXJmnTcmoxTlJtKMVvbe5ItXBWElbJVqqzuJLdvVNPgve3ZsYKwkreKrVUpXDSy/ZrLsrv5slyRPXXjlnb0Oh2e+ff6CRkAmOoADxu7iNODnOSjGKblJ7kkDDeDF5dQpQdSpJQhFZyk3kkVDi7E87yerHOFvBvUjn23wnNfguBnF2J53c9WGcbaLWrB75NetL6LgR0r2WZ4RwtbrfU9kO32AAQnLAAAAAAB3sCLPSVD71T/4zOCSbo4pa2kIv2KdWXko/wBRtD8kT6ZZuj/tFvAyC6eqIv0jW2vo+bW10505+Clk/KTKiL60raqrQqUms1OnOPzi0UJk+O/iVrlzk4fVYYmpeUZABCco2tF6QqW9WNalLKcfk1xUlxRcWGMQUrulrRajVSXpaXGL+qfMpM2tGaQq29VVaUnGS38pLPNxkuKeRJCe0u6TWSpeH2L7zMnGw1p+neUtePVmtlSk2m4v6rkzsllPJ6OElJZXYAAybHN05oaldUnSqrZnnGS7UXwaZxcI4Ohat1ajVSvnJKS7MY55LVT4tb335fGWAxtWckUqYSmptcowkZAMkoAPG5uYU4Oc5KMIrOUm8kkDDeDF5dQp05VJyUIRTcpPckVFi/E07ypqR6tvGT1I7U5cNaf0XDMxi3FE7yerHWhbrswz7TT7csvDJcCPFayzPCOFrdb6j2Q7fYABEcsAAAAAAAAAE56KaOdetP2acIr96Tf9BBi1ejGx1LN1Xvq1JP8Adj1V5qT8SSpZkXunw3Xp+CXgyC0ejwGUvjfR3oL6ol2Z/aR/ebz/AJlIukhHSdorXt43C7VJ5S74SaXk8n8yOyOUUuoVb6W13XJWAAKp5sAAA2tF6QqW9WNak8px+TXFNcUXFhnEFK7pa0dlSOr6Wnxi2uHNb8mUmbWjNIVberGrSlqyi18JLjGS4pkkJ7S7o9W6Xh9i/AcTDOIaV3S1o9Wov1lLPNxfPvTy2P6nazLKeT0cJqa3R7GQAZNgAeF3dQpwdSclCEVnKTeSQMN4WWLy6hSpyqTkowim5SfBIqLF2J53c9SPVtoyzhHc5NetPzyXAYuxRO8nqxThbxb1I57Z7dk5/RcCOlayzPCOFrdb6nsh2+wACI5YAAAAAAAAAAAB9UqUpSUIrOUmlFc23ki99DWao29OivUpxjnzaW1/PMrHo50W6t2qrX2dFNt8HJrKK82/AtqJYpjxk7vS6sRc38mQATHVB43VCNSEoTSlCUWpRfFNZNHsAGslD6c0bK2uJ0JLsy6r5wfZfy88zRLX6QtAO4oqtBZ1qSk9X24b5L4rLNePMqcqTjtZ5fV6f0bMfD7GQAaFUAAA2tGaRq29VVaUtWa8U1szi1xTyXyLiwziCleUtePVnHJVIPfF5ea5MpM2tGaQqW9VVaUtWcfk1xUlxRJCe0u6TVul4f4l+Ag2iOkWhJJXEJUp8ZRTlB/LavM3bzpAsYxzhKdWXCKi15yySLG+Pk7i1dLWdyJNdXEacHOclGMU3KT3JIqHF+J53c9WGcLaLWrB7HJ+1L6I8cSYnrXjyklTpJtxprPwcn6zOGQWWZ4RydZrvU9kO32AARHMAAAAAAAAAAAAABMejvQDq1v0mpH7Km/s890qmfmo7fHLkbRWXglpqds1BE4wdob9FtYwf6yXWqv3nw8EkvA7phIyW0scHqq4KEVFfAABk3AAAMNFVY/w16Co7mkl6GcuvFL9XJ8fuvyfxRax5XFCM4OE4qUZJqUXuafBmso7kV9Tp43Q2v8Ao/PwJFi/DE7SetHOVvJ9SXGL9iX0fEjpUaaeDzNlcq5bZdwADBGAAAAAAAAAAAAAAAAAAAAAADc0Toyrc1VRpLOT2tvYorjKT5GTaMXJ4Xc98PaFqXddUo5qOx1amWyEefx5IurR9lCjSjSprVhFZRX583nm/E08PaDpWlH0dNbXk6k3vlLLe+7uOqWoQ2o9Ho9KqY892AAbl0AAAAAAAAA8bq2hUhKE4qcJJqUWtjRVOLcH1LZurSTqW+b4Nyp/e5x975luHzKOayNZQUitqdNC+OH38n57BZWJsAxnnUtcqc+NF7IS74v1X3bvgV1d2tSlN06kHCae2L3/AO670VpQcTz9+mspfuXHk8gAaFYAAAAAAAAAAAAAAAAExw3gSrVcalx9lR3+j/7kl3+yvM2UW+xNVRO14gjg6B0HWu6mpTj1U16So+zBd/N9xb2H9B0rSl6Oms3vnUeWtJ833dxuWFjTo01SpQUIRWyK/HvfebJZhBRO/pdHGhZ7swkZANy6AAAAAAAAAAAAAAADR0pomhcQ1K1NTXB+tHvi96ZvAGJRUlhlZ6b6O6ketbT9Iv8AxzaUl8JbE/HIh1/o+tQlq1qcqcuGa2P4Pc/Av08bi2hOLjOEZxe+Mkmn4MilUn2Odd0yuXMOPo/P4Lf0hgaxqLZTdF86by/lecfIj1z0aSzzp3Sa4KUNvzUvoRuqRzp9Ouj2WSAgllfo9vo9n0VRd0mn/MjSngrSK/w2fwnS/wBRpsl4IHpbl/F/o4AO9HBukX/hX/HS/wBRsUcBaQlvhTh96a/pzGyXgwtNc/4v9EZBOaHRrWfbuIR56sZS/Fo7mjujy0htqSnXfJvVj8o7fm2bKqTJ4dPvk+VgqylSlKSjGLlJ7opNt+CJRojAd3VadVK3p7M28nNruiuPxLPsNFUKKypUoU+erFJv4vezcSJI0r5L9XS4rmbycPQWFbW12whr1ONWeTl4cI+B3EjIJUkjpQhGCxFYAAMm4AAAAAAAAAAAAAAAAAAAAAAAAPlgGPkyjJgA2NWBIAGGDKAMG5kAAwAAAAAAAAAAAAAAAf/Z;" vertex="1" parent="1">
          <mxGeometry x="300" y="830" width="40" height="40" as="geometry" />
        </mxCell>
      </root>
    </mxGraphModel>
  </diagram>
</mxfile>
